<?xml version="1.0" standalone="no"?><!DOCTYPE svg PUBLIC "-//W3C//DTD SVG 1.1//EN" "http://www.w3.org/Graphics/SVG/1.1/DTD/svg11.dtd"><svg class="icon" width="200px" height="200.00px" viewBox="0 0 1024 1024" version="1.1" xmlns="http://www.w3.org/2000/svg"><path fill="#505050" d="M536.228571 489.485714L244.457143 116.685714c-3.428571-4.457143-8.8-6.971429-14.4-6.971428H141.714286c-7.657143 0-11.885714 8.8-7.2 14.742857L437.828571 512 134.514286 899.542857A9.12 9.12 0 0 0 141.714286 914.285714h88.342857c5.6 0 10.971429-2.628571 14.4-6.971428l291.771428-372.685715c10.4-13.371429 10.4-31.885714 0-45.142857z m347.428572 0L591.885714 116.685714c-3.428571-4.457143-8.8-6.971429-14.4-6.971428H489.142857c-7.657143 0-11.885714 8.8-7.2 14.742857L785.257143 512 481.942857 899.542857A9.12 9.12 0 0 0 489.142857 914.285714h88.342857c5.6 0 10.971429-2.628571 14.4-6.971428l291.771429-372.685715c10.4-13.371429 10.4-31.885714 0-45.142857z" /></svg>