<?xml version="1.0" standalone="no"?><!DOCTYPE svg PUBLIC "-//W3C//DTD SVG 1.1//EN" "http://www.w3.org/Graphics/SVG/1.1/DTD/svg11.dtd"><svg class="icon" width="200px" height="200.00px" viewBox="0 0 1024 1024" version="1.1" xmlns="http://www.w3.org/2000/svg"><path fill="#FF4500" d="M512 39.384615C252.061538 39.384615 39.384615 252.061538 39.384615 512s212.676923 472.615385 472.615385 472.615385 472.615385-212.676923 472.615385-472.615385S771.938462 39.384615 512 39.384615zM157.538462 512c0-194.953846 159.507692-354.461538 354.461538-354.461538 76.8 0 147.692308 23.630769 204.8 64.984615L222.523077 716.8C181.169231 659.692308 157.538462 588.8 157.538462 512z m354.461538 354.461538c-76.8 0-147.692308-23.630769-204.8-64.984615l494.276923-494.276923C842.830769 364.307692 866.461538 435.2 866.461538 512c0 194.953846-159.507692 354.461538-354.461538 354.461538z" /></svg>